<? xml version = "1.0" encoding = "UTF-8" ?><svg xmlns="http://www.w3.org/2000/svg" xmlns:xlink="http://www.w3.org/1999/xlink" width="20" height="20" version="1.1" viewBox="0 0 20 20"><title>Fill-1</title><desc>Created with Sketch.</desc><g id="Page-1" fill="none" fill-rule="evenodd" stroke="none" stroke-width="1"><g id="icon-(1)" fill="#FFF" fill-rule="nonzero"><path id="Fill-1" d="M8.7746382,8.1062641 L2.5364465,14.3444558 C1.67514148,15.205785 1.67514148,16.6022225 2.5364465,17.4635517 C3.3891632,18.3162442 4.7663598,18.3247817 5.6295557,17.48914 L5.6555424,17.4635517 L7.4378899,15.6812041 L8.7746382,17.0179525 L6.9923157,18.800325 C5.3927174,20.3998725 2.7992707,20.3998725 1.19969814,18.800325 C-0.38389438,17.2167325 -0.39972521,14.6590533 1.15218064,13.0559716 L1.19969814,13.0077074 L7.4378899,6.7695157 L8.7746382,8.1062641 Z M18.8003,13.0077074 C20.3998975,14.60728 20.3998975,17.2007275 18.8003,18.800325 C17.2167325,20.3838925 14.6590533,20.3997484 13.0559716,18.8478167 L13.0077074,18.800325 L6.7695157,12.5621333 L8.1062641,11.2253599 L14.3444558,17.4635517 C15.205785,18.3248558 16.6022475,18.3248558 17.4635767,17.4635517 C18.3162442,16.6108592 18.3247817,15.2336383 17.48914,14.3704416 L17.4635767,14.3444558 L15.6812041,12.5621333 L17.0179775,11.2253599 L18.8003,13.0077074 Z M13.2304824,7.4378649 L11.8937341,8.7746382 L5.6555424,2.5364215 C4.7942373,1.67514148 3.3977507,1.67514148 2.5364465,2.5364215 C1.67514148,3.3977507 1.67514148,4.7942123 2.5364465,5.6555424 L4.318794,7.4378649 L2.9820457,8.7746382 L1.19969814,6.9922907 C-0.39989938,5.3926932 -0.39989938,2.7992707 1.19969814,1.19969814 C2.7992707,-0.39989938 5.3927174,-0.39989938 6.9923157,1.19969814 L13.2304824,7.4378649 Z M18.8003,1.19969814 C20.3838925,2.7832657 20.3997484,5.340944 18.8478167,6.9440265 L18.8003,6.9922907 L12.5621333,13.2304824 L11.2253599,11.8937341 L17.4635767,5.6555424 C18.3248558,4.7942123 18.3248558,3.3977507 17.4635767,2.5364215 C16.6108592,1.68375398 15.2336633,1.67521648 14.3704666,2.5108582 L14.3444558,2.5364215 L12.5621333,4.318794 L11.2253599,2.9820457 L13.0077074,1.19969814 C14.607305,-0.39989938 17.2007275,-0.39989938 18.8003,1.19969814 L18.8003,1.19969814 Z"/></g></g></svg>