<svg xmlns="http://www.w3.org/2000/svg" width="25" height="25" version="1.1" viewBox="0 0 374.67 317.33"><g><path fill="#9ca3af" d="m25.338 223.16c-0.77694-0.97118 0.33511-23.286 15.705-30.848 5.0617-2.4906-15.632-67.257 60.014-74.597 0.82524-52.61 23.856-57.416 61.697-34.774 45.218-70.332 123.15-39.565 122.83 33.092 22.904 11.939 45.57 24.132 46.553 59.453 8.5725 0.26338 16.916-0.39082 26.922 5.6088 4.0418-31.826-6.215-60.694-45.431-83.571-19.42-99.348-106.16-104.98-161.53-51.601-40.238-9.9921-69.474 2.0195-81.327 48.796-87.964 37.882-54.754 109.72-45.431 128.44z"/><g><path fill="#9ca3af" d="m103.81 224.28q-8.2134-4.84-17.6-7.92-9.24-3.08-15.547-3.08-4.9867 0-7.92 1.9067-2.7867 1.76-2.7867 5.28 0 3.3733 2.4933 5.72 2.4933 2.2 6.16 3.6667 3.6667 1.32 10.853 3.52 10.707 3.08 17.6 6.16 7.04 3.08 12.027 9.5334 4.9867 6.3067 4.9867 16.573t-5.4267 17.6q-5.4267 7.1867-14.96 10.853-9.3867 3.6667-20.973 3.6667-12.76 0-25.52-4.4-12.613-4.5467-21.853-12.32l10.413-20.973q7.7734 6.8934 18.333 11.293 10.707 4.4 18.92 4.4 6.0133 0 9.3867-2.2 3.52-2.2 3.52-6.4534 0-3.52-2.64-5.8667-2.4933-2.3467-6.4533-3.6667-3.8133-1.4667-10.853-3.3733-10.56-2.9333-17.453-5.8667-6.8933-3.08-11.88-9.0934-4.84-6.16-4.84-16.28 0-9.5334 4.9867-16.72 5.1333-7.1867 14.373-11 9.3867-3.96 21.707-3.96 11.147 0 22 3.2267 10.853 3.08 19.067 8.36z"/><path fill="#9ca3af" d="m156.53 215.77q16.427 0 25.52 7.6267 9.0934 7.48 9.24 21.12v51.627h-25.667v-8.9467q-7.92 10.12-23.907 10.12-12.613 0-19.947-6.7467-7.1867-6.8934-7.1867-18.04 0-11.293 7.7734-17.6 7.92-6.3067 22.587-6.4534h20.68v-0.88q0-5.72-3.96-8.8-3.8133-3.08-11.147-3.08-4.9867 0-11.293 1.6133-6.16 1.6133-12.467 4.6933l-7.1867-17.6q9.68-4.4 18.48-6.4534 8.9467-2.2 18.48-2.2zm-6.7467 63.8q5.8667 0 10.267-2.7867 4.4-2.9333 5.5734-7.48v-6.8933h-15.547q-11 0-11 8.2134 0 4.1067 2.7867 6.6 2.9333 2.3467 7.92 2.3467z"/><path fill="#9ca3af" d="m237.72 215.77q16.427 0 25.52 7.6267 9.0934 7.48 9.24 21.12v51.627h-25.667v-8.9467q-7.92 10.12-23.907 10.12-12.613 0-19.947-6.7467-7.1867-6.8934-7.1867-18.04 0-11.293 7.7734-17.6 7.92-6.3067 22.587-6.4534h20.68v-0.88q0-5.72-3.96-8.8-3.8133-3.08-11.147-3.08-4.9867 0-11.293 1.6133-6.16 1.6133-12.467 4.6933l-7.1867-17.6q9.68-4.4 18.48-6.4534 8.9467-2.2 18.48-2.2zm-6.7467 63.8q5.8667 0 10.267-2.7867 4.4-2.9333 5.5734-7.48v-6.8933h-15.547q-11 0-11 8.2134 0 4.1067 2.7867 6.6 2.9333 2.3467 7.92 2.3467z"/><path fill="#ED64A6" d="m353.97 224.28q-8.2134-4.84-17.6-7.92-9.24-3.08-15.547-3.08-4.9867 0-7.92 1.9067-2.7867 1.76-2.7867 5.28 0 3.3733 2.4933 5.72 2.4933 2.2 6.16 3.6667 3.6667 1.32 10.853 3.52 10.707 3.08 17.6 6.16 7.04 3.08 12.027 9.5334 4.9867 6.3067 4.9867 16.573t-5.4267 17.6q-5.4267 7.1867-14.96 10.853-9.3867 3.6667-20.973 3.6667-12.76 0-25.52-4.4-12.613-4.5467-21.853-12.32l10.413-20.973q7.7734 6.8934 18.333 11.293 10.707 4.4 18.92 4.4 6.0134 0 9.3867-2.2 3.52-2.2 3.52-6.4534 0-3.52-2.64-5.8667-2.4933-2.3467-6.4534-3.6667-3.8134-1.4667-10.853-3.3733-10.56-2.9333-17.453-5.8667-6.8933-3.08-11.88-9.0934-4.84-6.16-4.84-16.28 0-9.5334 4.9867-16.72 5.1334-7.1867 14.373-11 9.38679ca3af-3.96 21.707-3.96 11.147 0 22 3.2267 10.853 3.08 19.067 8.36z"/></g></g></svg>